<svg xmlns="http://www.w3.org/2000/svg" xmlns:xlink="http://www.w3.org/1999/xlink" width="500" zoomAndPan="magnify" viewBox="0 0 375 374.999991" height="500" preserveAspectRatio="xMidYMid meet" version="1.0"><defs><g/></defs><g fill="#5b2c6b" fill-opacity="1"><g transform="translate(115.476449, 199.113239)"><g><path d="M 12.28125 -23.171875 C 14.957031 -23.171875 17.082031 -22.628906 18.65625 -21.546875 C 20.238281 -20.472656 21.03125 -18.832031 21.03125 -16.625 C 21.03125 -15.03125 20.601562 -13.617188 19.75 -12.390625 C 18.894531 -11.171875 17.703125 -10.21875 16.171875 -9.53125 C 14.640625 -8.851562 12.835938 -8.515625 10.765625 -8.515625 L 6.390625 -8.515625 L 6.390625 -1.890625 C 6.390625 -1.296875 6.632812 -0.878906 7.125 -0.640625 C 7.625 -0.410156 8.21875 -0.253906 8.90625 -0.171875 L 8.90625 0 L 0.5 0 L 0.5 -0.171875 C 1.175781 -0.253906 1.765625 -0.410156 2.265625 -0.640625 C 2.765625 -0.878906 3.015625 -1.296875 3.015625 -1.890625 L 3.015625 -21.296875 C 3.015625 -21.890625 2.765625 -22.300781 2.265625 -22.53125 C 1.765625 -22.757812 1.175781 -22.921875 0.5 -23.015625 L 0.5 -23.171875 Z M 11.5625 -9.109375 C 12.988281 -9.109375 14.15625 -9.273438 15.0625 -9.609375 C 15.96875 -9.953125 16.632812 -10.578125 17.0625 -11.484375 C 17.5 -12.390625 17.71875 -13.679688 17.71875 -15.359375 C 17.71875 -16.265625 17.628906 -17.144531 17.453125 -18 C 17.273438 -18.863281 16.941406 -19.644531 16.453125 -20.34375 C 15.972656 -21.039062 15.253906 -21.597656 14.296875 -22.015625 C 13.347656 -22.429688 12.09375 -22.640625 10.53125 -22.640625 L 6.390625 -22.640625 L 6.390625 -9.828125 C 7.296875 -9.585938 8.1875 -9.40625 9.0625 -9.28125 C 9.945312 -9.164062 10.78125 -9.109375 11.5625 -9.109375 Z M 11.5625 -9.109375 "/></g></g></g><g fill="#5b2c6b" fill-opacity="1"><g transform="translate(137.491561, 199.113239)"><g><path d="M 18.40625 -4.375 C 19.070312 -3.488281 19.660156 -2.785156 20.171875 -2.265625 C 20.691406 -1.742188 21.207031 -1.320312 21.71875 -1 C 22.226562 -0.6875 22.769531 -0.382812 23.34375 -0.09375 L 23.34375 0 L 17.34375 0 L 17.34375 -0.5625 L 10.890625 -9.5 L 6.390625 -9.5 L 6.390625 -1.890625 C 6.390625 -1.296875 6.632812 -0.878906 7.125 -0.640625 C 7.625 -0.410156 8.21875 -0.253906 8.90625 -0.171875 L 8.90625 0 L 0.5 0 L 0.5 -0.171875 C 1.175781 -0.253906 1.765625 -0.410156 2.265625 -0.640625 C 2.765625 -0.878906 3.015625 -1.296875 3.015625 -1.890625 L 3.015625 -21.296875 C 3.015625 -21.890625 2.765625 -22.300781 2.265625 -22.53125 C 1.765625 -22.757812 1.175781 -22.921875 0.5 -23.015625 L 0.5 -23.171875 L 12.125 -23.171875 C 14.789062 -23.171875 16.910156 -22.660156 18.484375 -21.640625 C 20.066406 -20.628906 20.859375 -19.109375 20.859375 -17.078125 C 20.859375 -15.359375 20.269531 -13.863281 19.09375 -12.59375 C 17.925781 -11.320312 16.328125 -10.4375 14.296875 -9.9375 Z M 6.390625 -10.828125 C 8.109375 -10.335938 9.84375 -10.09375 11.59375 -10.09375 C 12.957031 -10.09375 14.082031 -10.253906 14.96875 -10.578125 C 15.851562 -10.898438 16.503906 -11.476562 16.921875 -12.3125 C 17.335938 -13.15625 17.546875 -14.335938 17.546875 -15.859375 C 17.546875 -16.703125 17.457031 -17.519531 17.28125 -18.3125 C 17.101562 -19.101562 16.765625 -19.816406 16.265625 -20.453125 C 15.773438 -21.097656 15.054688 -21.613281 14.109375 -22 C 13.160156 -22.382812 11.898438 -22.578125 10.328125 -22.578125 L 6.390625 -22.578125 Z M 6.390625 -10.828125 "/></g></g></g><g fill="#5b2c6b" fill-opacity="1"><g transform="translate(159.837591, 199.113239)"><g><path d="M 13.96875 -23.640625 C 15.695312 -23.640625 17.3125 -23.363281 18.8125 -22.8125 C 20.3125 -22.257812 21.632812 -21.457031 22.78125 -20.40625 C 23.925781 -19.363281 24.816406 -18.097656 25.453125 -16.609375 C 26.097656 -15.117188 26.421875 -13.445312 26.421875 -11.59375 C 26.421875 -9.738281 26.097656 -8.066406 25.453125 -6.578125 C 24.816406 -5.085938 23.925781 -3.816406 22.78125 -2.765625 C 21.632812 -1.710938 20.3125 -0.910156 18.8125 -0.359375 C 17.3125 0.191406 15.695312 0.46875 13.96875 0.46875 C 12.25 0.46875 10.632812 0.191406 9.125 -0.359375 C 7.613281 -0.910156 6.28125 -1.710938 5.125 -2.765625 C 3.976562 -3.816406 3.082031 -5.085938 2.4375 -6.578125 C 1.800781 -8.066406 1.484375 -9.738281 1.484375 -11.59375 C 1.484375 -13.445312 1.800781 -15.117188 2.4375 -16.609375 C 3.082031 -18.097656 3.976562 -19.363281 5.125 -20.40625 C 6.28125 -21.457031 7.613281 -22.257812 9.125 -22.8125 C 10.632812 -23.363281 12.25 -23.640625 13.96875 -23.640625 Z M 15.296875 -0.125 C 16.816406 -0.125 18.144531 -0.523438 19.28125 -1.328125 C 20.414062 -2.140625 21.289062 -3.257812 21.90625 -4.6875 C 22.53125 -6.113281 22.84375 -7.765625 22.84375 -9.640625 C 22.84375 -11.296875 22.585938 -12.921875 22.078125 -14.515625 C 21.578125 -16.117188 20.875 -17.5625 19.96875 -18.84375 C 19.0625 -20.125 17.984375 -21.144531 16.734375 -21.90625 C 15.484375 -22.664062 14.109375 -23.046875 12.609375 -23.046875 C 11.085938 -23.046875 9.765625 -22.640625 8.640625 -21.828125 C 7.515625 -21.023438 6.632812 -19.914062 6 -18.5 C 5.375 -17.09375 5.0625 -15.453125 5.0625 -13.578125 C 5.0625 -11.898438 5.316406 -10.265625 5.828125 -8.671875 C 6.335938 -7.085938 7.039062 -5.648438 7.9375 -4.359375 C 8.84375 -3.066406 9.925781 -2.035156 11.1875 -1.265625 C 12.445312 -0.503906 13.816406 -0.125 15.296875 -0.125 Z M 15.296875 -0.125 "/></g></g></g><g fill="#5b2c6b" fill-opacity="1"><g transform="translate(187.414348, 199.113239)"><g><path d="M 11.359375 -13.203125 C 12.941406 -12.859375 14.226562 -12.421875 15.21875 -11.890625 C 16.21875 -11.359375 16.976562 -10.78125 17.5 -10.15625 C 18.019531 -9.539062 18.378906 -8.910156 18.578125 -8.265625 C 18.773438 -7.628906 18.875 -7.023438 18.875 -6.453125 C 18.875 -5.222656 18.535156 -4.078125 17.859375 -3.015625 C 17.191406 -1.953125 16.191406 -1.101562 14.859375 -0.46875 C 13.535156 0.15625 11.90625 0.46875 9.96875 0.46875 C 8.019531 0.46875 6.316406 0.164062 4.859375 -0.4375 C 3.410156 -1.050781 2.234375 -1.789062 1.328125 -2.65625 L 4.203125 -7.25 C 4.046875 -5.769531 4.296875 -4.492188 4.953125 -3.421875 C 5.617188 -2.359375 6.535156 -1.539062 7.703125 -0.96875 C 8.878906 -0.40625 10.117188 -0.125 11.421875 -0.125 C 12.703125 -0.125 13.6875 -0.367188 14.375 -0.859375 C 15.070312 -1.347656 15.554688 -1.957031 15.828125 -2.6875 C 16.109375 -3.414062 16.25 -4.128906 16.25 -4.828125 C 16.25 -5.953125 15.984375 -6.828125 15.453125 -7.453125 C 14.929688 -8.085938 14.1875 -8.59375 13.21875 -8.96875 C 12.257812 -9.34375 11.117188 -9.6875 9.796875 -10 C 7.722656 -10.507812 6.117188 -11.160156 4.984375 -11.953125 C 3.847656 -12.742188 3.0625 -13.609375 2.625 -14.546875 C 2.195312 -15.484375 1.984375 -16.394531 1.984375 -17.28125 C 1.984375 -19.195312 2.738281 -20.734375 4.25 -21.890625 C 5.757812 -23.054688 7.816406 -23.640625 10.421875 -23.640625 C 12.328125 -23.640625 13.925781 -23.347656 15.21875 -22.765625 C 16.507812 -22.179688 17.59375 -21.46875 18.46875 -20.625 L 15.53125 -15.953125 C 15.707031 -17.453125 15.492188 -18.734375 14.890625 -19.796875 C 14.296875 -20.859375 13.460938 -21.671875 12.390625 -22.234375 C 11.328125 -22.796875 10.175781 -23.078125 8.9375 -23.078125 C 7.90625 -23.078125 7.070312 -22.882812 6.4375 -22.5 C 5.8125 -22.113281 5.359375 -21.601562 5.078125 -20.96875 C 4.804688 -20.34375 4.671875 -19.65625 4.671875 -18.90625 C 4.671875 -17.644531 4.984375 -16.644531 5.609375 -15.90625 C 6.242188 -15.164062 7.070312 -14.597656 8.09375 -14.203125 C 9.125 -13.804688 10.210938 -13.472656 11.359375 -13.203125 Z M 11.359375 -13.203125 "/></g></g></g><g fill="#5b2c6b" fill-opacity="1"><g transform="translate(207.60866, 199.113239)"><g><path d="M 13.96875 -23.640625 C 15.695312 -23.640625 17.3125 -23.363281 18.8125 -22.8125 C 20.3125 -22.257812 21.632812 -21.457031 22.78125 -20.40625 C 23.925781 -19.363281 24.816406 -18.097656 25.453125 -16.609375 C 26.097656 -15.117188 26.421875 -13.445312 26.421875 -11.59375 C 26.421875 -9.738281 26.097656 -8.066406 25.453125 -6.578125 C 24.816406 -5.085938 23.925781 -3.816406 22.78125 -2.765625 C 21.632812 -1.710938 20.3125 -0.910156 18.8125 -0.359375 C 17.3125 0.191406 15.695312 0.46875 13.96875 0.46875 C 12.25 0.46875 10.632812 0.191406 9.125 -0.359375 C 7.613281 -0.910156 6.28125 -1.710938 5.125 -2.765625 C 3.976562 -3.816406 3.082031 -5.085938 2.4375 -6.578125 C 1.800781 -8.066406 1.484375 -9.738281 1.484375 -11.59375 C 1.484375 -13.445312 1.800781 -15.117188 2.4375 -16.609375 C 3.082031 -18.097656 3.976562 -19.363281 5.125 -20.40625 C 6.28125 -21.457031 7.613281 -22.257812 9.125 -22.8125 C 10.632812 -23.363281 12.25 -23.640625 13.96875 -23.640625 Z M 15.296875 -0.125 C 16.816406 -0.125 18.144531 -0.523438 19.28125 -1.328125 C 20.414062 -2.140625 21.289062 -3.257812 21.90625 -4.6875 C 22.53125 -6.113281 22.84375 -7.765625 22.84375 -9.640625 C 22.84375 -11.296875 22.585938 -12.921875 22.078125 -14.515625 C 21.578125 -16.117188 20.875 -17.5625 19.96875 -18.84375 C 19.0625 -20.125 17.984375 -21.144531 16.734375 -21.90625 C 15.484375 -22.664062 14.109375 -23.046875 12.609375 -23.046875 C 11.085938 -23.046875 9.765625 -22.640625 8.640625 -21.828125 C 7.515625 -21.023438 6.632812 -19.914062 6 -18.5 C 5.375 -17.09375 5.0625 -15.453125 5.0625 -13.578125 C 5.0625 -11.898438 5.316406 -10.265625 5.828125 -8.671875 C 6.335938 -7.085938 7.039062 -5.648438 7.9375 -4.359375 C 8.84375 -3.066406 9.925781 -2.035156 11.1875 -1.265625 C 12.445312 -0.503906 13.816406 -0.125 15.296875 -0.125 Z M 15.296875 -0.125 "/></g></g></g><g fill="#5b2c6b" fill-opacity="1"><g transform="translate(235.185417, 199.113239)"><g><path d="M 18.109375 -23.171875 L 23.84375 -23.171875 L 23.84375 -23.015625 C 23.394531 -22.960938 22.976562 -22.832031 22.59375 -22.625 C 22.207031 -22.414062 21.898438 -21.960938 21.671875 -21.265625 C 21.441406 -20.578125 21.328125 -19.484375 21.328125 -17.984375 L 21.328125 -5.5 C 21.328125 -3.769531 21.347656 -2.425781 21.390625 -1.46875 C 21.429688 -0.507812 21.460938 0.265625 21.484375 0.859375 L 21.421875 0.921875 L 4 -19.765625 L 4 -5.859375 C 4 -4.359375 4.113281 -3.203125 4.34375 -2.390625 C 4.582031 -1.585938 4.894531 -1.03125 5.28125 -0.71875 C 5.664062 -0.414062 6.078125 -0.234375 6.515625 -0.171875 L 6.515625 0 L 0.828125 0 L 0.828125 -0.171875 C 1.285156 -0.234375 1.703125 -0.363281 2.078125 -0.5625 C 2.460938 -0.757812 2.769531 -1.207031 3 -1.90625 C 3.226562 -2.601562 3.34375 -3.703125 3.34375 -5.203125 L 3.34375 -20.5625 C 2.789062 -21.21875 2.28125 -21.75 1.8125 -22.15625 C 1.351562 -22.570312 0.859375 -22.910156 0.328125 -23.171875 L 5.890625 -23.171875 C 6.003906 -22.972656 6.148438 -22.722656 6.328125 -22.421875 C 6.503906 -22.128906 6.769531 -21.785156 7.125 -21.390625 L 20.625 -5.296875 L 20.625 -17.3125 C 20.625 -18.8125 20.507812 -19.960938 20.28125 -20.765625 C 20.050781 -21.578125 19.75 -22.140625 19.375 -22.453125 C 19 -22.773438 18.578125 -22.960938 18.109375 -23.015625 Z M 18.109375 -23.171875 "/></g></g></g><path stroke-linecap="round" transform="matrix(0.75, 0, 0, 0.75, 98.07426, 158.09079)" fill="none" stroke-linejoin="miter" d="M 0.999944 0.998738 L 46.124947 0.998738 " stroke="#5b2c6b" stroke-width="2" stroke-opacity="1" stroke-miterlimit="4"/><path stroke-linecap="round" transform="matrix(0.75, 0, 0, 0.75, 246.707508, 218.137236)" fill="none" stroke-linejoin="miter" d="M 0.999364 0.99931 L 46.124367 0.99931 " stroke="#5b2c6b" stroke-width="2" stroke-opacity="1" stroke-miterlimit="4"/><g fill="#5b2c6b" fill-opacity="1"><g transform="translate(283.505923, 176.478754)"><g><path d="M -18.84375 23.171875 L -24.9375 23.171875 L -24.9375 23.046875 C -24.46875 22.910156 -24.050781 22.71875 -23.6875 22.46875 C -23.320312 22.226562 -22.972656 21.851562 -22.640625 21.34375 C -22.316406 20.84375 -21.941406 20.117188 -21.515625 19.171875 L -13.734375 1.125 L -10.625 -1.03125 L -10.734375 -0.328125 L -2.28125 20.625 C -2.0625 21.195312 -1.796875 21.707031 -1.484375 22.15625 C -1.179688 22.613281 -0.90625 22.953125 -0.65625 23.171875 L -9 23.171875 L -9 23.046875 C -8.226562 22.972656 -7.582031 22.820312 -7.0625 22.59375 C -6.550781 22.363281 -6.234375 21.984375 -6.109375 21.453125 C -5.984375 20.921875 -6.109375 20.171875 -6.484375 19.203125 L -13.375 1.953125 L -20.796875 19.203125 C -21.210938 20.148438 -21.363281 20.878906 -21.25 21.390625 C -21.144531 21.898438 -20.867188 22.269531 -20.421875 22.5 C -19.984375 22.726562 -19.457031 22.910156 -18.84375 23.046875 Z M -18.84375 23.171875 "/></g></g></g></svg>